<mxfile host="Electron" agent="Mozilla/5.0 (X11; Linux x86_64) AppleWebKit/537.36 (KHTML, like Gecko) draw.io/24.7.17 Chrome/128.0.6613.36 Electron/32.0.1 Safari/537.36" version="24.7.17">
  <diagram name="Page-1" id="x5GulW5hpHZzHsGW3e24">
    <mxGraphModel dx="1389" dy="980" grid="0" gridSize="10" guides="1" tooltips="1" connect="1" arrows="1" fold="1" page="0" pageScale="1" pageWidth="850" pageHeight="1100" math="0" shadow="0">
      <root>
        <mxCell id="0" />
        <mxCell id="1" parent="0" />
        <mxCell id="AGan5aRGakAMqPL-kEG_-1" value=":Interface" style="shape=umlLifeline;perimeter=lifelinePerimeter;whiteSpace=wrap;html=1;container=0;dropTarget=0;collapsible=0;recursiveResize=0;outlineConnect=0;portConstraint=eastwest;newEdgeStyle={&quot;edgeStyle&quot;:&quot;elbowEdgeStyle&quot;,&quot;elbow&quot;:&quot;vertical&quot;,&quot;curved&quot;:0,&quot;rounded&quot;:0};" parent="1" vertex="1">
          <mxGeometry x="63" y="-7" width="100" height="329" as="geometry" />
        </mxCell>
        <mxCell id="AGan5aRGakAMqPL-kEG_-2" value="" style="html=1;points=[];perimeter=orthogonalPerimeter;outlineConnect=0;targetShapes=umlLifeline;portConstraint=eastwest;newEdgeStyle={&quot;edgeStyle&quot;:&quot;elbowEdgeStyle&quot;,&quot;elbow&quot;:&quot;vertical&quot;,&quot;curved&quot;:0,&quot;rounded&quot;:0};" parent="AGan5aRGakAMqPL-kEG_-1" vertex="1">
          <mxGeometry x="45" y="99" width="10" height="196" as="geometry" />
        </mxCell>
        <mxCell id="AGan5aRGakAMqPL-kEG_-9" value="" style="endArrow=none;dashed=1;html=1;rounded=0;" parent="1" edge="1">
          <mxGeometry width="50" height="50" relative="1" as="geometry">
            <mxPoint x="-43" y="322" as="sourcePoint" />
            <mxPoint x="-43" y="55" as="targetPoint" />
          </mxGeometry>
        </mxCell>
        <mxCell id="AGan5aRGakAMqPL-kEG_-10" value="Usuário" style="shape=umlActor;verticalLabelPosition=bottom;verticalAlign=top;html=1;outlineConnect=0;" parent="1" vertex="1">
          <mxGeometry x="-58" y="-24" width="30" height="60" as="geometry" />
        </mxCell>
        <mxCell id="AGan5aRGakAMqPL-kEG_-11" value="" style="rounded=0;whiteSpace=wrap;html=1;" parent="1" vertex="1">
          <mxGeometry x="-48" y="81" width="10" height="219" as="geometry" />
        </mxCell>
        <mxCell id="AGan5aRGakAMqPL-kEG_-12" value="" style="endArrow=classic;html=1;rounded=0;fontSize=12;startSize=8;endSize=8;curved=1;" parent="1" target="AGan5aRGakAMqPL-kEG_-2" edge="1">
          <mxGeometry width="50" height="50" relative="1" as="geometry">
            <mxPoint x="-38" y="99" as="sourcePoint" />
            <mxPoint x="12" y="49" as="targetPoint" />
          </mxGeometry>
        </mxCell>
        <mxCell id="AGan5aRGakAMqPL-kEG_-13" value="seleciona opção &quot;visualizar&lt;div&gt;extrato de ações&quot;, insere&lt;/div&gt;&lt;div&gt;período desejado e filtro&lt;/div&gt;&lt;div&gt;(se desejar)&lt;/div&gt;" style="edgeLabel;html=1;align=center;verticalAlign=middle;resizable=0;points=[];fontSize=10;" parent="AGan5aRGakAMqPL-kEG_-12" vertex="1" connectable="0">
          <mxGeometry x="0.5382" y="2" relative="1" as="geometry">
            <mxPoint x="-43" y="31" as="offset" />
          </mxGeometry>
        </mxCell>
        <mxCell id="AGan5aRGakAMqPL-kEG_-14" value="[se logado e na tela de carteira]" style="text;html=1;align=center;verticalAlign=middle;whiteSpace=wrap;rounded=0;fontSize=10;" parent="1" vertex="1">
          <mxGeometry x="-12" y="68" width="87" height="30" as="geometry" />
        </mxCell>
        <mxCell id="AGan5aRGakAMqPL-kEG_-17" value="UC-21&lt;div&gt;Visualizar extrato&lt;/div&gt;&lt;div&gt;de ações&lt;/div&gt;" style="strokeWidth=2;html=1;shape=mxgraph.flowchart.start_1;whiteSpace=wrap;" parent="1" vertex="1">
          <mxGeometry x="207" y="-116" width="134" height="83" as="geometry" />
        </mxCell>
        <mxCell id="AGan5aRGakAMqPL-kEG_-49" value=":ExtratoTransacoes" style="shape=umlLifeline;perimeter=lifelinePerimeter;whiteSpace=wrap;html=1;container=0;dropTarget=0;collapsible=0;recursiveResize=0;outlineConnect=0;portConstraint=eastwest;newEdgeStyle={&quot;edgeStyle&quot;:&quot;elbowEdgeStyle&quot;,&quot;elbow&quot;:&quot;vertical&quot;,&quot;curved&quot;:0,&quot;rounded&quot;:0};" parent="1" vertex="1">
          <mxGeometry x="244" y="-7" width="145" height="331" as="geometry" />
        </mxCell>
        <mxCell id="AGan5aRGakAMqPL-kEG_-50" value="" style="html=1;points=[];perimeter=orthogonalPerimeter;outlineConnect=0;targetShapes=umlLifeline;portConstraint=eastwest;newEdgeStyle={&quot;edgeStyle&quot;:&quot;elbowEdgeStyle&quot;,&quot;elbow&quot;:&quot;vertical&quot;,&quot;curved&quot;:0,&quot;rounded&quot;:0};" parent="AGan5aRGakAMqPL-kEG_-49" vertex="1">
          <mxGeometry x="67.5" y="140" width="10" height="146" as="geometry" />
        </mxCell>
        <mxCell id="AGan5aRGakAMqPL-kEG_-5" value="&lt;span style=&quot;color: rgba(0, 0, 0, 0); font-family: monospace; font-size: 0px; text-align: start;&quot;&gt;%3CmxGraphModel%3E%3Croot%3E%3CmxCell%20id%3D%220%22%2F%3E%3CmxCell%20id%3D%221%22%20parent%3D%220%22%2F%3E%3CmxCell%20id%3D%222%22%20value%3D%22%26lt%3Bfont%20style%3D%26quot%3Bfont-size%3A%209px%3B%26quot%3B%26gt%3B%5Bse%20n%C3%A3o%20houve%26lt%3B%2Ffont%26gt%3B%26lt%3Bdiv%20style%3D%26quot%3Bfont-size%3A%209px%3B%26quot%3B%26gt%3B%26lt%3Bfont%20style%3D%26quot%3Bfont-size%3A%209px%3B%26quot%3B%26gt%3Berro%5D%26lt%3B%2Ffont%26gt%3B%26lt%3B%2Fdiv%26gt%3B%22%20style%3D%22text%3Bhtml%3D1%3Balign%3Dcenter%3BverticalAlign%3Dmiddle%3Bresizable%3D0%3Bpoints%3D%5B%5D%3Bautosize%3D1%3BstrokeColor%3Dnone%3BfillColor%3Dnone%3BfontSize%3D9%3B%22%20vertex%3D%221%22%20parent%3D%221%22%3E%3CmxGeometry%20x%3D%22438%22%20y%3D%22306%22%20width%3D%2275%22%20height%3D%2234%22%20as%3D%22geometry%22%2F%3E%3C%2FmxCell%3E%3C%2Froot%3E%3C%2FmxGraphModel%3E&lt;/span&gt;" style="html=1;points=[];perimeter=orthogonalPerimeter;outlineConnect=0;targetShapes=umlLifeline;portConstraint=eastwest;newEdgeStyle={&quot;edgeStyle&quot;:&quot;elbowEdgeStyle&quot;,&quot;elbow&quot;:&quot;vertical&quot;,&quot;curved&quot;:0,&quot;rounded&quot;:0};" parent="AGan5aRGakAMqPL-kEG_-49" vertex="1">
          <mxGeometry x="74" y="263" width="10" height="18" as="geometry" />
        </mxCell>
        <mxCell id="AGan5aRGakAMqPL-kEG_-3" value="" style="endArrow=classic;html=1;rounded=0;fontSize=12;startSize=8;endSize=8;curved=1;" parent="AGan5aRGakAMqPL-kEG_-49" edge="1">
          <mxGeometry width="50" height="50" relative="1" as="geometry">
            <mxPoint x="78.5" y="251" as="sourcePoint" />
            <mxPoint x="84.5" y="273" as="targetPoint" />
            <Array as="points">
              <mxPoint x="120.5" y="256" />
            </Array>
          </mxGeometry>
        </mxCell>
        <mxCell id="AGan5aRGakAMqPL-kEG_-4" value="calcularValorTotal(período)" style="edgeLabel;html=1;align=center;verticalAlign=middle;resizable=0;points=[];fontSize=8;" parent="AGan5aRGakAMqPL-kEG_-3" vertex="1" connectable="0">
          <mxGeometry x="0.4751" y="-4" relative="1" as="geometry">
            <mxPoint x="52" y="-1" as="offset" />
          </mxGeometry>
        </mxCell>
        <mxCell id="AGan5aRGakAMqPL-kEG_-55" value="" style="endArrow=classic;html=1;rounded=0;fontSize=12;startSize=8;endSize=8;curved=1;" parent="1" target="AGan5aRGakAMqPL-kEG_-50" edge="1">
          <mxGeometry width="50" height="50" relative="1" as="geometry">
            <mxPoint x="118" y="138" as="sourcePoint" />
            <mxPoint x="264" y="138" as="targetPoint" />
          </mxGeometry>
        </mxCell>
        <mxCell id="AGan5aRGakAMqPL-kEG_-56" value="exibirExtratoDetalhado(período, filtro)" style="edgeLabel;html=1;align=center;verticalAlign=middle;resizable=0;points=[];fontSize=10;" parent="AGan5aRGakAMqPL-kEG_-55" vertex="1" connectable="0">
          <mxGeometry x="0.5382" y="2" relative="1" as="geometry">
            <mxPoint x="-56" y="-7" as="offset" />
          </mxGeometry>
        </mxCell>
        <mxCell id="AGan5aRGakAMqPL-kEG_-57" value=":HistoricoTransacoes" style="shape=umlLifeline;perimeter=lifelinePerimeter;whiteSpace=wrap;html=1;container=0;dropTarget=0;collapsible=0;recursiveResize=0;outlineConnect=0;portConstraint=eastwest;newEdgeStyle={&quot;edgeStyle&quot;:&quot;elbowEdgeStyle&quot;,&quot;elbow&quot;:&quot;vertical&quot;,&quot;curved&quot;:0,&quot;rounded&quot;:0};" parent="1" vertex="1">
          <mxGeometry x="450" y="-7" width="145" height="335" as="geometry" />
        </mxCell>
        <mxCell id="AGan5aRGakAMqPL-kEG_-58" value="" style="html=1;points=[];perimeter=orthogonalPerimeter;outlineConnect=0;targetShapes=umlLifeline;portConstraint=eastwest;newEdgeStyle={&quot;edgeStyle&quot;:&quot;elbowEdgeStyle&quot;,&quot;elbow&quot;:&quot;vertical&quot;,&quot;curved&quot;:0,&quot;rounded&quot;:0};" parent="AGan5aRGakAMqPL-kEG_-57" vertex="1">
          <mxGeometry x="67.5" y="159" width="10" height="84" as="geometry" />
        </mxCell>
        <mxCell id="brkxQrMDDTh2cAaPKSID-1" value="&lt;span style=&quot;color: rgba(0, 0, 0, 0); font-family: monospace; font-size: 0px; text-align: start;&quot;&gt;%3CmxGraphModel%3E%3Croot%3E%3CmxCell%20id%3D%220%22%2F%3E%3CmxCell%20id%3D%221%22%20parent%3D%220%22%2F%3E%3CmxCell%20id%3D%222%22%20value%3D%22%26lt%3Bfont%20style%3D%26quot%3Bfont-size%3A%209px%3B%26quot%3B%26gt%3B%5Bse%20n%C3%A3o%20houve%26lt%3B%2Ffont%26gt%3B%26lt%3Bdiv%20style%3D%26quot%3Bfont-size%3A%209px%3B%26quot%3B%26gt%3B%26lt%3Bfont%20style%3D%26quot%3Bfont-size%3A%209px%3B%26quot%3B%26gt%3Berro%5D%26lt%3B%2Ffont%26gt%3B%26lt%3B%2Fdiv%26gt%3B%22%20style%3D%22text%3Bhtml%3D1%3Balign%3Dcenter%3BverticalAlign%3Dmiddle%3Bresizable%3D0%3Bpoints%3D%5B%5D%3Bautosize%3D1%3BstrokeColor%3Dnone%3BfillColor%3Dnone%3BfontSize%3D9%3B%22%20vertex%3D%221%22%20parent%3D%221%22%3E%3CmxGeometry%20x%3D%22438%22%20y%3D%22306%22%20width%3D%2275%22%20height%3D%2234%22%20as%3D%22geometry%22%2F%3E%3C%2FmxCell%3E%3C%2Froot%3E%3C%2FmxGraphModel%3E&lt;/span&gt;" style="html=1;points=[];perimeter=orthogonalPerimeter;outlineConnect=0;targetShapes=umlLifeline;portConstraint=eastwest;newEdgeStyle={&quot;edgeStyle&quot;:&quot;elbowEdgeStyle&quot;,&quot;elbow&quot;:&quot;vertical&quot;,&quot;curved&quot;:0,&quot;rounded&quot;:0};" vertex="1" parent="AGan5aRGakAMqPL-kEG_-57">
          <mxGeometry x="73" y="221" width="10" height="18" as="geometry" />
        </mxCell>
        <mxCell id="brkxQrMDDTh2cAaPKSID-2" value="" style="endArrow=classic;html=1;rounded=0;fontSize=12;startSize=8;endSize=8;curved=1;" edge="1" parent="AGan5aRGakAMqPL-kEG_-57">
          <mxGeometry width="50" height="50" relative="1" as="geometry">
            <mxPoint x="77.5" y="209" as="sourcePoint" />
            <mxPoint x="83.5" y="231" as="targetPoint" />
            <Array as="points">
              <mxPoint x="119.5" y="214" />
            </Array>
          </mxGeometry>
        </mxCell>
        <mxCell id="brkxQrMDDTh2cAaPKSID-3" value="filtrarPorTipo(filtro)" style="edgeLabel;html=1;align=center;verticalAlign=middle;resizable=0;points=[];fontSize=8;" vertex="1" connectable="0" parent="brkxQrMDDTh2cAaPKSID-2">
          <mxGeometry x="0.4751" y="-4" relative="1" as="geometry">
            <mxPoint x="38" y="3" as="offset" />
          </mxGeometry>
        </mxCell>
        <mxCell id="AGan5aRGakAMqPL-kEG_-62" value="" style="endArrow=classic;html=1;rounded=0;fontSize=12;startSize=8;endSize=8;curved=1;" parent="1" edge="1">
          <mxGeometry width="50" height="50" relative="1" as="geometry">
            <mxPoint x="323" y="155" as="sourcePoint" />
            <mxPoint x="517" y="155" as="targetPoint" />
          </mxGeometry>
        </mxCell>
        <mxCell id="AGan5aRGakAMqPL-kEG_-63" value="getHistoricoTransacoes(período)" style="edgeLabel;html=1;align=center;verticalAlign=middle;resizable=0;points=[];fontSize=10;" parent="AGan5aRGakAMqPL-kEG_-62" vertex="1" connectable="0">
          <mxGeometry x="0.5382" y="2" relative="1" as="geometry">
            <mxPoint x="-56" y="-7" as="offset" />
          </mxGeometry>
        </mxCell>
        <mxCell id="AGan5aRGakAMqPL-kEG_-65" value="&lt;span style=&quot;color: rgba(0, 0, 0, 0); font-family: monospace; font-size: 0px; text-align: start;&quot;&gt;%3CmxGraphModel%3E%3Croot%3E%3CmxCell%20id%3D%220%22%2F%3E%3CmxCell%20id%3D%221%22%20parent%3D%220%22%2F%3E%3CmxCell%20id%3D%222%22%20value%3D%22%26lt%3Bfont%20style%3D%26quot%3Bfont-size%3A%209px%3B%26quot%3B%26gt%3B%5Bse%20n%C3%A3o%20houve%26lt%3B%2Ffont%26gt%3B%26lt%3Bdiv%20style%3D%26quot%3Bfont-size%3A%209px%3B%26quot%3B%26gt%3B%26lt%3Bfont%20style%3D%26quot%3Bfont-size%3A%209px%3B%26quot%3B%26gt%3Berro%5D%26lt%3B%2Ffont%26gt%3B%26lt%3B%2Fdiv%26gt%3B%22%20style%3D%22text%3Bhtml%3D1%3Balign%3Dcenter%3BverticalAlign%3Dmiddle%3Bresizable%3D0%3Bpoints%3D%5B%5D%3Bautosize%3D1%3BstrokeColor%3Dnone%3BfillColor%3Dnone%3BfontSize%3D9%3B%22%20vertex%3D%221%22%20parent%3D%221%22%3E%3CmxGeometry%20x%3D%22438%22%20y%3D%22306%22%20width%3D%2275%22%20height%3D%2234%22%20as%3D%22geometry%22%2F%3E%3C%2FmxCell%3E%3C%2Froot%3E%3C%2FmxGraphModel%3E&lt;/span&gt;" style="html=1;points=[];perimeter=orthogonalPerimeter;outlineConnect=0;targetShapes=umlLifeline;portConstraint=eastwest;newEdgeStyle={&quot;edgeStyle&quot;:&quot;elbowEdgeStyle&quot;,&quot;elbow&quot;:&quot;vertical&quot;,&quot;curved&quot;:0,&quot;rounded&quot;:0};" parent="1" vertex="1">
          <mxGeometry x="523" y="172" width="10" height="18" as="geometry" />
        </mxCell>
        <mxCell id="AGan5aRGakAMqPL-kEG_-66" value="" style="endArrow=classic;html=1;rounded=0;fontSize=12;startSize=8;endSize=8;curved=1;" parent="1" edge="1">
          <mxGeometry width="50" height="50" relative="1" as="geometry">
            <mxPoint x="527.5" y="160" as="sourcePoint" />
            <mxPoint x="533.5" y="182" as="targetPoint" />
            <Array as="points">
              <mxPoint x="569.5" y="165" />
            </Array>
          </mxGeometry>
        </mxCell>
        <mxCell id="AGan5aRGakAMqPL-kEG_-67" value="filtrarPorPeriodo(período)" style="edgeLabel;html=1;align=center;verticalAlign=middle;resizable=0;points=[];fontSize=8;" parent="AGan5aRGakAMqPL-kEG_-66" vertex="1" connectable="0">
          <mxGeometry x="0.4751" y="-4" relative="1" as="geometry">
            <mxPoint x="52" y="-1" as="offset" />
          </mxGeometry>
        </mxCell>
        <mxCell id="AGan5aRGakAMqPL-kEG_-68" value="" style="endArrow=open;html=1;rounded=0;fontSize=12;startSize=8;endSize=8;curved=1;endFill=0;dashed=1;" parent="1" edge="1">
          <mxGeometry width="50" height="50" relative="1" as="geometry">
            <mxPoint x="516.5" y="236" as="sourcePoint" />
            <mxPoint x="321" y="236" as="targetPoint" />
          </mxGeometry>
        </mxCell>
        <mxCell id="AGan5aRGakAMqPL-kEG_-69" value="transações" style="edgeLabel;html=1;align=center;verticalAlign=middle;resizable=0;points=[];fontSize=10;" parent="AGan5aRGakAMqPL-kEG_-68" vertex="1" connectable="0">
          <mxGeometry x="0.0815" relative="1" as="geometry">
            <mxPoint x="5" y="-10" as="offset" />
          </mxGeometry>
        </mxCell>
        <mxCell id="AGan5aRGakAMqPL-kEG_-70" value="" style="endArrow=open;html=1;rounded=0;fontSize=12;startSize=8;endSize=8;curved=1;endFill=0;dashed=1;" parent="1" edge="1">
          <mxGeometry width="50" height="50" relative="1" as="geometry">
            <mxPoint x="312" y="278" as="sourcePoint" />
            <mxPoint x="117" y="278" as="targetPoint" />
          </mxGeometry>
        </mxCell>
        <mxCell id="AGan5aRGakAMqPL-kEG_-71" value="extrato detalhado" style="edgeLabel;html=1;align=center;verticalAlign=middle;resizable=0;points=[];fontSize=10;" parent="AGan5aRGakAMqPL-kEG_-70" vertex="1" connectable="0">
          <mxGeometry x="0.0815" relative="1" as="geometry">
            <mxPoint x="5" y="-10" as="offset" />
          </mxGeometry>
        </mxCell>
        <mxCell id="AGan5aRGakAMqPL-kEG_-72" value="" style="endArrow=open;html=1;rounded=0;fontSize=12;startSize=8;endSize=8;curved=1;endFill=0;dashed=1;" parent="1" edge="1">
          <mxGeometry width="50" height="50" relative="1" as="geometry">
            <mxPoint x="107" y="284" as="sourcePoint" />
            <mxPoint x="-37" y="284" as="targetPoint" />
          </mxGeometry>
        </mxCell>
        <mxCell id="AGan5aRGakAMqPL-kEG_-73" value="exibe extrato de ações" style="edgeLabel;html=1;align=center;verticalAlign=middle;resizable=0;points=[];fontSize=10;" parent="AGan5aRGakAMqPL-kEG_-72" vertex="1" connectable="0">
          <mxGeometry x="0.0815" relative="1" as="geometry">
            <mxPoint x="5" y="-10" as="offset" />
          </mxGeometry>
        </mxCell>
        <mxCell id="brkxQrMDDTh2cAaPKSID-4" value="[se filtro selecionado]" style="text;html=1;align=center;verticalAlign=middle;whiteSpace=wrap;rounded=0;fontSize=8;" vertex="1" parent="1">
          <mxGeometry x="552" y="194" width="79" height="15" as="geometry" />
        </mxCell>
      </root>
    </mxGraphModel>
  </diagram>
</mxfile>
